<svg width="130" height="130" viewBox="0 0 130 130" fill="none" xmlns="http://www.w3.org/2000/svg">
  <rect width="130" height="130" rx="28" fill="#c73c71"/>
  <path opacity="0.25" d="M45.7397 117.901C42.8947 118.546 40.0638 117.052 38.9272 114.481L70.5844 112.267L45.7397 117.901ZM107.804 97.677C108.481 100.661 106.805 103.627 104 104.642C104.012 104.403 104.012 104.161 103.995 103.916L101.664 70.5969L107.804 97.677ZM28.3188 68.1985L20.4311 33.4045C19.6986 30.173 21.724 26.9595 24.9555 26.2268L25.3764 26.1311L28.3188 68.1985ZM82.4955 13.1819C84.5885 12.7074 86.6727 13.391 88.0815 14.8088L69.6225 16.0998L82.4955 13.1819Z" fill="white"/>
  <path opacity="0.5" d="M94.0131 110.721C93.5372 114 90.4926 116.273 87.2133 115.797L65.3891 112.63L94.0258 110.628L94.0131 110.721ZM31.0776 107.652L28.8246 107.325C25.5453 106.85 23.2727 103.805 23.7485 100.526L28.3578 68.7552L31.0776 107.652ZM100.71 22.7708C103.99 23.2466 106.262 26.2912 105.787 29.5706L101.069 62.0833L98.2953 22.4202L100.71 22.7708ZM35.725 18.47C36.5781 15.6894 39.3538 13.8685 42.3217 14.2991L59.5776 16.802L35.725 18.47Z" fill="white"/>
  <path d="M88.5899 18.4189C91.8953 18.188 94.7619 20.6799 94.9932 23.9853L100.331 100.32C100.562 103.626 98.0702 106.493 94.7647 106.725L41.1602 110.473C37.8548 110.704 34.9882 108.212 34.7569 104.906L29.419 28.5713C29.1878 25.2657 31.6799 22.3982 34.9854 22.167L88.5899 18.4189ZM79.6846 68.3369C79.086 68.3788 78.9029 69.4005 78.6748 70.6738C78.4313 72.0332 78.1366 73.6801 77.2295 74.7285C76.3177 75.7728 74.7275 76.2942 73.4151 76.7246C72.1859 77.1277 71.1995 77.4512 71.2412 78.0498C71.2831 78.6484 72.3049 78.8315 73.5782 79.0595C74.9377 79.3031 76.5845 79.5985 77.6328 80.5058C78.6771 81.4177 79.1986 83.0069 79.6289 84.3193C80.032 85.5485 80.3555 86.5348 80.9541 86.4931C81.5528 86.4513 81.7358 85.4296 81.9639 84.1562C82.2074 82.7967 82.5029 81.1499 83.4102 80.1015C84.322 79.0573 85.9113 78.5358 87.2237 78.1054C88.4529 77.7023 89.4394 77.3789 89.3975 76.7802C89.3556 76.1816 88.3339 75.9986 87.0606 75.7705C85.7011 75.527 84.0542 75.2323 83.0059 74.3252C81.9615 73.4133 81.4402 71.8232 81.0098 70.5107C80.6067 69.2815 80.2833 68.295 79.6846 68.3369ZM59.625 42.373C58.4251 42.4569 58.0806 44.5774 57.6563 47.1885C57.2051 49.9648 56.6629 53.2964 54.9073 55.3252C53.1426 57.3457 49.9197 58.3456 47.2334 59.1787C44.7067 59.9623 42.6544 60.5989 42.7383 61.7988C42.8224 62.997 44.9375 63.3421 47.544 63.7676C50.3224 64.221 53.6597 64.766 55.6914 66.5322C57.7238 68.299 58.7234 71.5251 59.5547 74.2099C60.3341 76.727 60.9662 78.7683 62.1641 78.6845C63.3624 78.6004 63.708 76.4887 64.1338 73.8857C64.5876 71.1118 65.1325 67.7795 66.8985 65.748C68.6645 63.7166 71.8886 62.7133 74.5723 61.8779C77.0906 61.094 79.1333 60.4581 79.0498 59.2597C78.9659 58.0596 76.8489 57.7147 74.2412 57.29C71.4694 56.8386 68.1428 56.2963 66.1143 54.541C64.0829 52.7748 63.0789 49.5464 62.2432 46.8584C61.4592 44.3365 60.8232 42.2897 59.625 42.373Z" fill="white"/>
</svg>
